<svg width="129" height="129" viewBox="0 0 129 129" fill="none" xmlns="http://www.w3.org/2000/svg">
<circle cx="64.5" cy="64.5" r="64.5" fill="white"/>
<path fill-rule="evenodd" clip-rule="evenodd" d="M31.0972 30.7579C29.6249 32.2303 29.6249 34.5999 29.6249 39.3392V89.6071C29.6249 99.0856 29.6249 103.825 32.5696 106.77C34.2113 108.411 36.4108 109.138 39.6785 109.459V102.174C39.6785 98.0099 43.0544 94.6339 47.2187 94.6339C51.383 94.6339 54.7589 98.0099 54.7589 102.174V109.714H74.8661V102.174C74.8661 98.0099 78.242 94.6339 82.4062 94.6339C86.5704 94.6339 89.9464 98.0099 89.9464 102.174V109.459C93.2143 109.138 95.4136 108.411 97.0553 106.77C100 103.825 100 99.0856 100 89.6071V39.3392C100 34.5999 100 32.2303 98.5277 30.7579C97.0553 29.2856 94.6857 29.2856 89.9464 29.2856H39.6785C34.9392 29.2856 32.5696 29.2856 31.0972 30.7579Z" fill="#03468F" fill-opacity="0.24"/>
<path fill-rule="evenodd" clip-rule="evenodd" d="M44.7053 51.9065C44.7053 50.5184 45.8306 49.3931 47.2187 49.3931H82.4062C83.7943 49.3931 84.9196 50.5184 84.9196 51.9065C84.9196 53.2946 83.7943 54.4199 82.4062 54.4199H47.2187C45.8306 54.4199 44.7053 53.2946 44.7053 51.9065Z" fill="#03468F"/>
<path fill-rule="evenodd" clip-rule="evenodd" d="M44.7053 66.9865C44.7053 65.5984 45.8306 64.4731 47.2187 64.4731H67.3259C68.714 64.4731 69.8393 65.5984 69.8393 66.9865C69.8393 68.3746 68.714 69.4999 67.3259 69.4999H47.2187C45.8306 69.4999 44.7053 68.3746 44.7053 66.9865Z" fill="#03468F"/>
<path fill-rule="evenodd" clip-rule="evenodd" d="M44.7053 82.0671C44.7053 80.679 45.8306 79.5537 47.2187 79.5537H77.3794C78.7676 79.5537 79.8928 80.679 79.8928 82.0671C79.8928 83.4552 78.7676 84.5805 77.3794 84.5805H47.2187C45.8306 84.5805 44.7053 83.4552 44.7053 82.0671Z" fill="#03468F"/>
<path d="M84.9196 102.175C84.9196 100.787 83.7941 99.6611 82.4062 99.6611C81.0183 99.6611 79.8928 100.787 79.8928 102.175H84.9196ZM79.8928 102.175V109.715H84.9196V102.175H79.8928Z" fill="#03468F"/>
<path d="M49.7321 102.175C49.7321 100.787 48.6068 99.6611 47.2187 99.6611C45.8306 99.6611 44.7053 100.787 44.7053 102.175H49.7321ZM44.7053 102.175V109.715H49.7321V102.175H44.7053Z" fill="#03468F"/>
</svg>
