<svg width="101" height="81" viewBox="0 0 101 81" fill="none" xmlns="http://www.w3.org/2000/svg">
<path fill-rule="evenodd" clip-rule="evenodd" d="M34.0962 22.2685C34.1045 25.1343 31.9363 27.4646 29.2532 27.4735L16.2387 27.5167C16.2386 27.5167 16.2386 27.5167 16.2235 22.3278C16.2084 17.139 16.2084 17.139 16.2084 17.139L29.2231 17.0958C31.9061 17.0869 34.0879 19.4028 34.0962 22.2685ZM11.3654 22.344C11.3571 19.4782 13.5254 17.1479 16.2084 17.139L16.2235 22.3278L16.2387 27.5167C13.5556 27.5256 11.3738 25.2097 11.3654 22.344Z" fill="#FFE288"/>
<path fill-rule="evenodd" clip-rule="evenodd" d="M22.7308 76.3648C22.7308 73.8468 25.1508 71.8056 28.1359 71.8056V76.3648V80.9239C25.1508 80.9239 22.7308 78.8827 22.7308 76.3648ZM28.1359 76.3648C28.1359 80.9239 28.1359 80.9239 28.1359 80.9239H32.9532C35.9383 80.9239 38.3583 78.8827 38.3583 76.3648C38.3583 73.8468 35.9383 71.8056 32.9532 71.8056H28.1359C28.1359 71.8056 28.1359 71.8056 28.1359 76.3648Z" fill="#FFE288"/>
<path fill-rule="evenodd" clip-rule="evenodd" d="M86.6609 22.1713C86.6939 25.0087 84.5203 27.3368 81.806 27.3713C81.7522 27.372 81.6843 27.373 81.6114 27.3742C81.4518 27.3767 81.268 27.3797 81.1536 27.3797C80.1181 27.3797 71.7303 27.4138 63.5778 27.4481C59.5068 27.4653 55.5012 27.4824 52.5134 27.4952C51.0195 27.5017 49.7801 27.507 48.9141 27.5108L47.5561 27.5166C47.5558 27.5166 47.5557 27.5166 47.5353 22.3787C47.5148 17.2408 47.515 17.2408 47.5152 17.2408L48.8735 17.235C49.7395 17.2312 50.979 17.2259 52.473 17.2194C55.461 17.2066 59.4668 17.1895 63.5382 17.1723C71.6706 17.1381 80.092 17.1038 81.1536 17.1038C81.2031 17.1038 81.2501 17.103 81.3289 17.1016C81.4065 17.1002 81.5148 17.0983 81.6866 17.0962C84.4009 17.0617 86.628 19.3339 86.6609 22.1713ZM42.6204 22.4001C42.6091 19.5625 44.8004 17.2526 47.5148 17.2408L47.5353 22.3787L47.5557 27.5166C44.8413 27.5284 42.6316 25.2377 42.6204 22.4001Z" fill="#FFE288"/>
<path fill-rule="evenodd" clip-rule="evenodd" d="M78.1372 76.3454C78.1486 78.8631 75.9454 80.9127 73.2162 80.9233C73.0346 80.924 72.8514 80.9241 72.6668 80.9236H50.4034C47.6741 80.9236 45.4617 78.8825 45.4617 76.3648C45.4617 73.847 47.6741 71.8059 50.4034 71.8059H72.6816L72.689 71.8059C72.8514 71.8064 73.0134 71.8063 73.1748 71.8056C75.904 71.7951 78.1258 73.8276 78.1372 76.3454Z" fill="#FFE288"/>
<path fill-rule="evenodd" clip-rule="evenodd" d="M89.5026 58.0935C89.5053 60.5947 87.2873 62.6243 84.5485 62.6268L16.5732 62.6873L16.4363 62.6805L16.7054 58.1583C16.4363 62.6805 16.4361 62.6805 16.4359 62.6805L16.4286 62.6801L16.42 62.6797L16.4004 62.6786C16.3862 62.6778 16.3698 62.6769 16.3513 62.6758C16.3142 62.6735 16.2685 62.6705 16.2147 62.6666C16.1071 62.6588 15.9664 62.6473 15.7965 62.6307C13.0733 62.3643 11.1023 60.1321 11.394 57.6451C11.6858 55.1581 14.1299 53.358 16.853 53.6245C16.8712 53.6262 16.8878 53.6278 16.9029 53.6292L84.5389 53.569C87.2776 53.5665 89.5 55.5922 89.5026 58.0935Z" fill="#FFE288"/>
<path fill-rule="evenodd" clip-rule="evenodd" d="M100.868 40.5218C100.87 43.3899 98.6607 45.7166 95.9334 45.7187L50.4034 45.7533C47.6761 45.7554 45.4636 43.432 45.4617 40.5639C45.4597 37.6958 47.669 35.3691 50.3963 35.367L95.9263 35.3324C98.6536 35.3303 100.866 37.6537 100.868 40.5218Z" fill="#FFE288"/>
<path fill-rule="evenodd" clip-rule="evenodd" d="M1.18217e-05 40.4801C0.00591244 37.6309 2.21897 35.3262 4.943 35.3324L50.4848 35.4356C53.2088 35.4418 55.4123 37.7565 55.4064 40.6056C55.4005 43.4548 53.1874 45.7595 50.4634 45.7533L4.92164 45.6501C2.1976 45.644 -0.00588845 43.3293 1.18217e-05 40.4801Z" fill="#FFE288"/>
<path fill-rule="evenodd" clip-rule="evenodd" d="M58.2477 4.7015C58.2601 7.21926 55.8653 9.26886 52.8988 9.27941C52.7014 9.28012 52.5023 9.28025 52.3016 9.27976H28.1023C25.1357 9.27976 22.7308 7.23869 22.7308 4.7209C22.7308 2.20312 25.1357 0.162048 28.1023 0.162048H52.3177L52.3258 0.162069C52.5023 0.162521 52.6783 0.162408 52.8538 0.161784C55.8203 0.151235 58.2353 2.18373 58.2477 4.7015Z" fill="#FFE288"/>
<path fill-rule="evenodd" clip-rule="evenodd" d="M75.2958 4.7015C75.3083 7.21926 72.9135 9.26886 69.9469 9.27941C69.7495 9.28012 69.5504 9.28025 69.3498 9.27976H45.1504C42.1838 9.27976 39.7789 7.23869 39.7789 4.7209C39.7789 2.20312 42.1838 0.162048 45.1504 0.162048H69.3658L69.3739 0.162069C69.5504 0.162521 69.7265 0.162408 69.9019 0.161784C72.8685 0.151235 75.2834 2.18373 75.2958 4.7015Z" fill="#FFE288"/>
</svg>
