<svg width="287" height="102" viewBox="0 0 287 102" fill="none" xmlns="http://www.w3.org/2000/svg">
<path d="M92.2336 40.0784L92.332 71.6624H101.024H109.716L109.814 40.0784L109.88 8.52729H101.024H92.168L92.2336 40.0784Z" fill="white"/>
<path d="M118.474 40.0784L118.572 71.6624L143.106 71.7608L167.608 71.8264V65.4309V59.0354H152.454H137.268V52.6399V46.2444H150.978H164.656V40.0128V33.7813H150.978H137.268L137.334 27.4842L137.399 21.1543L152.52 21.0559L167.608 20.9903V14.7588V8.52732H143.008H118.408L118.474 40.0784Z" fill="white"/>
<path d="M176.464 40.1768V71.8264H200.9C216.972 71.8264 225.336 71.728 225.336 71.4984C225.336 71.3016 225.369 68.481 225.369 65.1685V59.1993L210.248 59.101L195.16 59.0354V52.6399V46.2444H209.264H223.368V40.0128V33.7813H209.264H195.16V27.3858V20.9903H210.346H225.5L225.402 14.7588L225.303 8.52732H200.9H176.464V40.1768Z" fill="white"/>
<path d="M235.176 40.1768V71.8264H259.12H283.064V65.4309V59.0354H267.976H252.888V52.6399V46.2444H266.992H281.096V40.0128V33.7813H266.992H252.888V27.3858V20.9903H267.976H283.064V14.7588V8.52732H259.12H235.176V40.1768Z" fill="white"/>
<path d="M101.155 75.1061C99.1544 75.2701 99.1216 75.3029 97.5472 77.2051L95.94 79.1402L95.8416 77.1395L95.7432 75.1061H93.972H92.168V81.1736V87.2411H93.972H95.7432L95.8416 85.2077C95.9072 84.027 96.104 83.1415 96.3336 83.0759C96.5304 83.0103 97.3176 83.8302 98.072 84.9453C98.8264 86.0604 99.6136 87.0116 99.8432 87.11C100.106 87.2084 101.057 87.2411 101.975 87.1756L103.681 87.0772L101.254 83.7646L98.8264 80.4849L100.106 78.845C100.827 77.9595 101.844 76.746 102.402 76.1556C102.926 75.5325 103.32 75.0405 103.254 75.0077C103.222 74.9749 102.238 75.0077 101.155 75.1061Z" fill="white"/>
<path d="M193.979 75.2373C192.438 75.926 191.552 77.2379 191.552 78.9434C191.552 80.7801 192.405 81.6984 194.865 82.4855C195.849 82.7807 196.833 83.2399 197.095 83.5023C198.243 84.5518 195.521 84.3222 192.7 83.1087C192.503 83.0431 192.011 83.6334 191.618 84.4534L190.896 85.9621L192.11 86.4868C193.815 87.2084 197.522 87.4379 198.768 86.9132C200.277 86.29 201.064 85.0765 201.064 83.4367C201.064 81.5344 200.146 80.5505 197.489 79.6322C196.308 79.2058 195.324 78.681 195.226 78.4515C195.062 77.8939 197.259 77.9267 198.44 78.5498C199.391 79.0418 199.424 79.0418 200.08 77.7299C200.441 77.0084 200.67 76.254 200.572 76.09C200.31 75.6637 197.194 74.7781 196.013 74.7781C195.455 74.8109 194.537 75.0077 193.979 75.2373Z" fill="white"/>
<path d="M262.892 75.0405L260.924 75.1389L259.284 77.2707L257.644 79.3698L257.546 77.2379L257.447 75.1061H255.84H254.2V81.1736V87.2411H255.84H257.48V85.4701C257.48 84.2894 257.644 83.5678 257.972 83.3055C258.267 83.0759 258.53 82.9447 258.595 83.0103C258.628 83.0759 259.317 84.0598 260.104 85.2077L261.514 87.2411H263.417C264.499 87.2411 265.352 87.1756 265.352 87.0772C265.352 86.9788 264.434 85.6013 263.286 84.027C262.138 82.4527 261.088 80.9768 260.957 80.7473C260.793 80.4849 261.514 79.4026 262.925 77.6971C264.106 76.254 265.057 75.0405 264.991 75.0077C264.926 74.9749 263.974 74.9749 262.892 75.0405Z" fill="white"/>
<path d="M110.93 80.944C109.814 84.1254 108.896 86.8804 108.896 87.0115C108.896 87.1427 109.65 87.2411 110.602 87.1755C112.242 87.0771 112.34 87.0115 112.635 85.9948C112.93 84.9781 112.996 84.9453 114.636 84.9453C116.276 84.9453 116.342 84.9781 116.637 85.9948C116.932 87.0115 117.03 87.0771 118.67 87.1755C119.786 87.2411 120.376 87.1427 120.376 86.9132C120.376 86.6836 119.49 83.9942 118.408 80.944C117.326 77.8611 116.44 75.2701 116.44 75.2045C116.44 75.1717 115.653 75.1061 114.734 75.1061H112.996L110.93 80.944ZM115.489 81.8296C115.587 82.3215 115.423 82.5183 114.734 82.5839C113.685 82.7151 113.652 82.4855 114.21 80.5177L114.57 79.2058L114.964 80.1897C115.194 80.7144 115.456 81.4688 115.489 81.8296Z" fill="white"/>
<path d="M126.936 81.1736V87.2411H128.74H130.544V84.9453V82.6495H132.676H134.808V81.3376V80.0585L132.774 79.9601C130.806 79.8617 130.708 79.8289 130.61 78.9762L130.511 78.0907L133.07 77.9923L135.628 77.8939L135.726 76.4836L135.825 75.1061H131.397H126.936V81.1736Z" fill="white"/>
<path d="M142.418 81.0753L142.516 87.0772L144.254 87.1756L145.96 87.274V85.4373C145.96 83.7319 146.026 83.6007 146.682 83.6991C147.174 83.7647 147.764 84.3878 148.42 85.5029L149.404 87.2412H151.306C152.323 87.2412 153.176 87.1428 153.176 87.0444C153.176 86.946 152.651 85.8965 151.995 84.7486L150.814 82.6495L151.7 81.6C152.487 80.6817 152.586 80.3209 152.422 78.9106C152.29 77.5659 152.061 77.1068 151.077 76.1885L149.896 75.1061H146.124H142.352L142.418 81.0753ZM148.748 79.2058C148.748 80.1241 148.65 80.1897 147.37 80.2881L145.96 80.3865V79.2058V78.0251L147.37 78.1235C148.65 78.2219 148.748 78.2875 148.748 79.2058Z" fill="white"/>
<path d="M159.736 81.1736V87.2411H164.328H168.92V85.7653V84.3222L166.23 84.2238C163.541 84.1254 163.508 84.1254 163.41 83.2071L163.311 82.3215H165.607H167.936V80.8457V79.3698H165.64C163.574 79.3698 163.344 79.3042 163.344 78.7138C163.344 78.1235 163.574 78.0579 165.968 78.0579H168.592V76.582V75.1061H164.164H159.736V81.1736Z" fill="white"/>
<path d="M175.808 81.1736V87.2411H180.4H184.992V85.7653V84.3222L182.302 84.2238L179.58 84.1254L179.482 79.5993L179.383 75.1061H177.612H175.808V81.1736Z" fill="white"/>
<path d="M208.28 81.1737V87.2412H209.92H211.527L211.626 84.847L211.724 82.4856H213.692H215.66L215.758 84.8798L215.857 87.274L217.497 87.1756L219.137 87.0772L219.202 81.0753L219.268 75.1061H217.562H215.824V77.238V79.3698H213.659H211.494L211.626 77.238L211.724 75.1061H210.018H208.28V81.1737Z" fill="white"/>
<path d="M226.976 81.1736V87.2411H231.404H235.832V85.7653V84.3222L233.142 84.2238C230.453 84.1254 230.42 84.1254 230.322 83.2071L230.223 82.3215H232.519H234.848V80.8457V79.3698H232.552C230.486 79.3698 230.256 79.3042 230.256 78.7138C230.256 78.1563 230.518 78.0907 232.978 77.9923L235.668 77.8939L235.766 76.4836L235.865 75.1061H231.437H226.976V81.1736Z" fill="white"/>
<path d="M243.048 81.1736V87.2411H244.688H246.328V81.1736V75.1061H244.688H243.048V81.1736Z" fill="white"/>
<path d="M271.584 81.1736V87.2411H273.388H275.192V84.7813V82.3215H277.16H279.128V84.7813V87.2411H280.932H282.736V81.1736V75.1061H280.932H279.128V77.2379V79.3698H277.16H275.192V77.2379V75.1061H273.388H271.584V81.1736Z" fill="white"/>
<path d="M205.525 90.8161C204.541 91.8984 204.967 92.8823 206.738 93.7351C207.591 94.1286 208.28 94.6206 208.28 94.7846C208.28 95.2437 206.214 95.2109 205.754 94.7518C205.492 94.4894 205.295 94.555 205.033 95.0469C204.77 95.5717 204.836 95.7357 205.525 96.0637C206.706 96.5884 208.477 96.5228 209.1 95.8997C209.428 95.5717 209.592 94.9486 209.526 94.3254C209.428 93.4727 209.231 93.2431 207.952 92.7839C207.165 92.4887 206.443 92.0952 206.378 91.8656C206.181 91.308 207.066 91.1113 208.083 91.472C208.805 91.7672 209.002 91.7344 209.166 91.308C209.625 90.1273 206.509 89.701 205.525 90.8161Z" fill="white"/>
<path d="M209.92 90.6849C209.92 91.0129 210.248 91.1768 210.904 91.1768H211.888V93.8006C211.888 96.1949 211.954 96.4244 212.544 96.4244C213.134 96.4244 213.2 96.1949 213.2 93.8006V91.1768H214.184C214.84 91.1768 215.168 91.0129 215.168 90.6849C215.168 90.2913 214.643 90.1929 212.544 90.1929C210.445 90.1929 209.92 90.2913 209.92 90.6849Z" fill="white"/>
<path d="M215.594 92.5543C215.758 94.5878 215.922 95.0469 216.644 95.6701C217.792 96.654 219.235 96.654 220.252 95.6045C220.974 94.9157 221.072 94.5222 221.072 92.4887C221.072 90.4225 221.006 90.1929 220.416 90.1929C219.826 90.1929 219.76 90.4225 219.76 92.2592C219.76 94.4566 219.432 95.1125 218.251 95.1125C217.333 95.1125 217.005 94.227 217.103 91.8984C217.169 90.2257 217.169 90.1929 216.283 90.1929H215.398L215.594 92.5543Z" fill="white"/>
<path d="M222.056 93.3087V96.4244H223.532C226.32 96.4244 227.96 94.7846 227.468 92.5215C227.14 90.9801 225.894 90.1929 223.827 90.1929H222.056V93.3087ZM225.106 91.472C226.878 92.1608 226.32 95.1125 224.418 95.1125C223.565 95.1125 223.532 95.0797 223.532 93.1447C223.532 91.0785 223.663 90.9145 225.106 91.472Z" fill="white"/>
<path d="M228.288 93.3087V96.4244H230.42C232.322 96.4244 232.552 96.3588 232.552 95.7685C232.552 95.2109 232.322 95.1125 231.076 95.1125C229.83 95.1125 229.6 95.0141 229.6 94.4566C229.6 93.899 229.83 93.8006 230.912 93.8006C231.994 93.8006 232.224 93.7023 232.224 93.1447C232.224 92.5871 231.994 92.4887 230.912 92.4887C229.83 92.4887 229.6 92.3904 229.6 91.8328C229.6 91.2752 229.83 91.1768 231.076 91.1768C232.158 91.1768 232.552 91.0457 232.552 90.6849C232.552 90.2913 232.093 90.1929 230.42 90.1929H228.288V93.3087Z" fill="white"/>
<path d="M233.536 93.3087C233.536 96.1949 233.602 96.4244 234.192 96.4244C234.717 96.4244 234.815 96.1621 234.914 94.6206L235.012 92.8167L236.455 94.6206C238.522 97.2116 238.784 97.0804 238.784 93.3087C238.784 90.5537 238.718 90.1929 238.226 90.1929C237.734 90.1929 237.636 90.4553 237.734 91.9968C237.8 92.9807 237.734 93.8006 237.57 93.7678C237.439 93.7678 236.685 92.9479 235.898 91.964C233.831 89.373 233.536 89.537 233.536 93.3087Z" fill="white"/>
<path d="M239.44 90.6849C239.44 91.0129 239.768 91.1768 240.424 91.1768H241.408V93.8006C241.408 96.1949 241.474 96.4244 242.064 96.4244C242.654 96.4244 242.72 96.1949 242.72 93.8006V91.1768H243.704C244.36 91.1768 244.688 91.0129 244.688 90.6849C244.688 90.2913 244.163 90.1929 242.064 90.1929C239.965 90.1929 239.44 90.2913 239.44 90.6849Z" fill="white"/>
<path d="M247.312 93.3087V96.4244H249.05C251.806 96.4244 252.921 95.2437 251.707 93.5383C251.445 93.1447 251.379 92.8167 251.543 92.8167C252.035 92.8167 252.002 91.0785 251.51 90.5865C251.281 90.3569 250.264 90.1929 249.214 90.1929H247.312V93.3087ZM250.526 91.8984C250.625 92.3576 250.428 92.4887 249.641 92.4887C248.821 92.4887 248.624 92.3576 248.624 91.8C248.624 91.2752 248.788 91.1441 249.51 91.2424C250.067 91.308 250.461 91.5704 250.526 91.8984ZM250.854 94.5222C250.953 95.0141 250.723 95.1125 249.805 95.1125C248.821 95.1125 248.624 94.9814 248.624 94.4238C248.624 93.8662 248.788 93.7678 249.674 93.8662C250.395 93.9318 250.789 94.1614 250.854 94.5222Z" fill="white"/>
<path d="M253.216 93.3415C253.216 96.1621 253.282 96.4572 253.806 96.3588C254.167 96.2932 254.364 95.9325 254.364 95.3421C254.331 94.0958 255.381 94.1614 256.102 95.4405C256.594 96.2932 256.857 96.4244 258.005 96.4244C259.12 96.4244 259.415 96.2932 259.71 95.6045C260.006 94.9814 260.334 94.7846 261.088 94.7846C261.842 94.7846 262.105 94.9486 262.269 95.6045C262.4 96.1293 262.695 96.4244 263.089 96.4244C263.909 96.4244 263.876 96.2605 262.662 92.9807C261.088 88.881 260.662 89.1434 258.333 95.6045C258.136 96.1949 258.038 96.1621 257.414 95.1781C256.791 94.1942 256.791 94.063 257.283 93.5055C258.661 91.964 257.382 90.1929 254.856 90.1929H253.216V93.3415ZM256.168 91.6688C256.791 92.4232 256.299 93.1447 255.217 93.1447C254.331 93.1447 254.266 93.0463 254.364 92.2264C254.43 91.7344 254.495 91.308 254.495 91.2424C254.594 90.9473 255.84 91.2752 256.168 91.6688ZM261.514 93.1447C261.646 93.6695 261.514 93.8006 260.891 93.8006C260.202 93.8006 260.137 93.735 260.498 92.9807C260.891 92.0952 261.252 92.128 261.514 93.1447Z" fill="white"/>
<path d="M264.368 93.3087C264.368 96.1949 264.434 96.4244 265.024 96.4244C265.549 96.4244 265.647 96.1621 265.746 94.555L265.844 92.6855L267.32 94.555C268.14 95.5717 269.058 96.3916 269.386 96.4244C269.878 96.4244 269.944 96.0637 269.944 93.3087C269.944 90.4225 269.878 90.1929 269.288 90.1929C268.763 90.1929 268.665 90.4553 268.566 92.0624L268.468 93.9646L266.992 92.0624C266.172 91.0457 265.254 90.1929 264.958 90.1929C264.434 90.1929 264.368 90.5537 264.368 93.3087Z" fill="white"/>
<path d="M271.551 91.1441C270.534 92.1608 270.338 93.3415 270.961 94.555C271.486 95.5717 272.601 96.4244 273.486 96.4244C274.405 96.4244 276.176 95.5389 276.176 95.0797C276.176 94.5878 275.192 94.3254 274.766 94.7518C273.814 95.7029 271.912 94.6862 271.912 93.2103C271.912 92.3904 272.994 91.1769 273.683 91.1769C273.946 91.1769 274.405 91.4064 274.7 91.7016C275.126 92.128 275.29 92.1608 275.717 91.8C276.176 91.4064 276.176 91.308 275.52 90.7833C274.372 89.865 272.699 90.0289 271.551 91.1441Z" fill="white"/>
<path d="M276.832 93.3087C276.832 96.1949 276.865 96.4244 277.488 96.4244C278.046 96.4244 278.144 96.1949 278.144 95.1125V93.8006H279.456H280.768V95.1125C280.768 96.1949 280.866 96.4244 281.424 96.4244C282.047 96.4244 282.08 96.1949 282.08 93.3087C282.08 90.4225 282.047 90.1929 281.424 90.1929C280.899 90.1929 280.768 90.4225 280.768 91.3408C280.768 92.4559 280.735 92.4887 279.456 92.4887C278.177 92.4887 278.144 92.4559 278.144 91.3408C278.144 90.4225 278.013 90.1929 277.488 90.1929C276.865 90.1929 276.832 90.4225 276.832 93.3087Z" fill="white"/>
<path d="M41.328 8.10096C40.18 9.87202 38.9336 11.8399 38.54 12.463C36.8672 15.0868 31.9472 20.5968 25.2888 27.2219C18.1384 34.3717 12.3328 39.3569 7.21599 42.735C3.73919 45.0637 2.62399 45.8836 2.68959 46.1788C2.72239 46.31 2.62399 46.6707 2.45999 46.9987C2.09919 47.8842 2.88639 49.1633 4.55919 50.3113C14.596 57.2971 23.8784 65.6932 32.472 75.6309C33.0952 76.3852 33.8496 77.1068 34.1776 77.2707C34.8336 77.6315 38.9336 82.9775 40.9016 85.9949C41.656 87.2412 42.4104 88.2251 42.5416 88.2251C42.7056 88.2251 43.0992 88.6843 43.46 89.209C43.9848 89.9961 44.3456 90.1929 45.2968 90.1929C46.412 90.1929 46.6088 89.9961 49.9216 85.6669C59.2696 73.4006 70.1264 62.6431 81.6392 54.1814C89.3472 48.4746 89.6752 48.081 88.0024 46.0148C87.4776 45.326 85.1816 43.391 82.9512 41.6855C71.5696 33.0598 60.352 22.9254 57.4 18.6945C56.7112 17.7106 54.9072 15.4476 53.4312 13.6765C51.9224 11.8727 49.9872 9.51125 49.1344 8.42893C46.5432 5.018 46.412 4.9196 44.8376 4.9196H43.3944L41.328 8.10096ZM48.3472 16.8907C50.184 17.8746 56.8424 23.3846 62.5824 28.6977C66.0264 31.8791 73.8 41.0952 76.1616 44.7685C77.4408 46.7691 77.3424 48.4746 75.8664 50.7704C70.5856 59.0682 61.7624 68.1203 51.3648 75.926C47.888 78.5498 47.6256 78.681 46.0512 78.7138C43.0664 78.7138 38.704 75.5981 29.4872 66.8412C22.4024 60.1177 19.8768 57.3299 16.4984 52.6399C15.3504 51.0328 14.1696 49.5569 13.9072 49.4257C13.612 49.2617 13.448 48.6386 13.448 47.7531C13.448 46.2772 14.3992 44.6373 16.236 42.9646C16.728 42.5055 17.6792 41.3248 18.368 40.3408C20.5 37.2251 25.42 31.7807 29.5856 27.9762C31.816 25.9428 33.7184 24.2701 33.8824 24.2701C34.0136 24.2701 34.112 24.0733 34.112 23.8437C34.1448 23.6469 34.5712 23.155 35.096 22.7942C35.6208 22.4334 37.556 20.892 39.4256 19.3505C41.2624 17.809 43.0008 16.4643 43.296 16.3331C44.444 15.8083 46.8384 16.0707 48.3472 16.8907Z" fill="white"/>
<path d="M44.5752 18.0386C42.9352 18.4977 35.096 24.7948 28.9952 30.6C25.3216 34.0437 19.2864 40.9312 17.6464 43.4566C15.8096 46.3755 15.58 47.1955 16.2032 49.3601C16.6624 50.8688 17.3184 51.7871 20.4016 55.1653C27.88 63.3974 35.3912 70.6456 41 75.0077C45.1984 78.2546 45.264 78.2546 50.512 74.8437C52.0536 73.827 53.956 72.4167 54.776 71.728C62.3856 65.0045 75.768 50.18 75.768 48.4418C75.768 46.6707 69.2408 38.209 62.648 31.3871C52.5128 20.8919 47.56 17.2514 44.5752 18.0386ZM47.724 31.3215C48.3144 33.1254 49.1344 35.3884 49.4624 36.3067C50.184 38.209 50.0528 38.4714 48.4456 38.3074L47.396 38.209L47.2976 44.8341L47.232 51.4919H45.264C43.3288 51.4919 43.3288 51.4919 43.46 50.5736C43.6568 49.3929 44.28 41.9151 44.3784 39.8489L44.444 38.209L43.0992 38.3074C42.3448 38.373 41.656 38.3074 41.5576 38.1434C41.4592 38.0122 41.82 36.5035 42.312 34.8309C42.804 33.191 43.1648 31.8135 43.0992 31.8135C43.0336 31.8135 43.2304 31.1903 43.4928 30.4032C43.7552 29.6489 44.116 28.4026 44.28 27.681C44.444 26.9267 44.7392 25.91 44.936 25.3852L45.2968 24.4341L45.9528 26.2379C46.3136 27.2219 47.1008 29.5177 47.724 31.3215ZM38.376 43.7845C34.8008 44.7357 32.8 46.2116 32.8 47.917C32.8 48.6058 33.1608 49.0977 34.2104 49.9177C37.2608 52.3775 36.8672 52.2791 44.444 52.3119C53.3656 52.3119 55.8584 51.8199 58.4168 49.4585C59.7944 48.1794 60.0568 47.8186 59.86 47.1627C59.3352 45.4572 57.3016 44.2765 54.8088 44.2765C53.956 44.2765 53.6936 44.0797 53.2344 43.1286C52.9392 42.5055 52.7752 41.9151 52.8736 41.8167C53.0376 41.6527 54.9072 41.9807 57.4656 42.6694C58.1544 42.8334 58.6792 43.1286 58.6136 43.3254C58.5808 43.4894 59.368 44.2109 60.352 44.8997C62.7792 46.5723 63.0744 47.4907 61.7624 49.0977C60.0568 51.2624 57.6296 52.7055 55.1696 53.099C45.756 54.5421 41.5576 54.4765 34.604 52.771C31.2256 51.9183 29.356 50.9672 28.0112 49.3929C25.7808 46.8019 26.8304 45.1292 32.2424 42.4727L35.8832 40.7344L37.8512 42.0791L39.852 43.4238L38.376 43.7845ZM47.4944 59.9209C47.724 62.6103 47.9864 65.562 48.1176 66.4804L48.3144 68.2186H45.264C42.7712 68.2186 42.2792 68.1202 42.4104 67.7595C42.968 66.3164 43.132 64.6109 43.2304 58.773L43.296 55.0997H45.1984H47.1008L47.4944 59.9209Z" fill="white"/>
<g clip-path="url(#clip0_33_136)">
<path d="M64 79.625C61.584 79.625 59.625 81.584 59.625 84C59.625 86.416 61.584 88.375 64 88.375C66.416 88.375 68.375 86.416 68.375 84C68.375 81.584 66.416 79.625 64 79.625ZM64 87.6328C61.9941 87.6328 60.3672 86.0059 60.3672 84C60.3672 81.9941 61.9941 80.3672 64 80.3672C66.0059 80.3672 67.6328 81.9941 67.6328 84C67.6328 86.0059 66.0059 87.6328 64 87.6328ZM64.8545 84.3643C65.1943 84.2393 65.6201 83.8857 65.6201 83.2002C65.6201 82.5049 65.1758 81.9199 64.2119 81.9199H62.6914C62.6484 81.9199 62.6133 81.9551 62.6133 81.998V86.002C62.6133 86.0449 62.6484 86.0801 62.6914 86.0801H63.2236C63.2666 86.0801 63.3018 86.0449 63.3018 86.002V84.4805H64.168L64.8965 86.0352C64.9092 86.0625 64.9365 86.0801 64.9668 86.0801H65.5723C65.5855 86.0802 65.5986 86.0769 65.6102 86.0705C65.6218 86.0641 65.6316 86.0548 65.6386 86.0435C65.6455 86.0322 65.6495 86.0193 65.65 86.006C65.6505 85.9928 65.6476 85.9796 65.6416 85.9678L64.8545 84.3643ZM64.0977 83.9316H63.3018V82.4863H64.1162C64.585 82.4863 64.9062 82.7334 64.9062 83.2236C64.9062 83.6816 64.6152 83.9316 64.0977 83.9316Z" fill="white"/>
</g>
<defs>
<clipPath id="clip0_33_136">
<rect width="10" height="10" fill="white" transform="translate(59 79)"/>
</clipPath>
</defs>
</svg>
